<?xml version="1.0" encoding="UTF-8"?>
<svg xmlns="http://www.w3.org/2000/svg" xmlns:xlink="http://www.w3.org/1999/xlink" width="536.2156pt" height="257.0509pt" viewBox="0 0 536.2156 257.0509">
<path fill-rule="nonzero" fill="rgb(10.195923%, 10.195923%, 9.411621%)" fill-opacity="1" d="M 187.546875 71.660156 C 177.265625 80.140625 165.230469 87.816406 152.453125 91.65625 C 146.992188 93.292969 139.003906 94.46875 135.257812 89.066406 C 132.019531 84.402344 134.464844 78.179688 137.261719 73.914062 C 141.171875 67.949219 147.277344 62.925781 153.492188 59.355469 C 163.457031 53.625 175.382812 50.871094 186.824219 53.265625 C 188.832031 53.6875 190.125 55.636719 189.695312 57.597656 C 189.265625 59.5625 187.269531 60.820312 185.257812 60.402344 C 175.636719 58.386719 165.644531 60.832031 157.285156 65.640625 C 152.109375 68.621094 146.816406 72.871094 143.554688 77.84375 C 142.664062 79.207031 140.363281 83.421875 141.441406 84.980469 C 142.601562 86.648438 148.644531 85.167969 150.257812 84.679688 C 165.933594 79.972656 180.90625 68.597656 192.386719 57.398438 C 193.566406 56.25 195.328125 55.996094 196.796875 56.765625 C 198.257812 57.53125 199.019531 59.117188 198.691406 60.703125 C 196.738281 70.105469 192.148438 81.003906 187.074219 91.375 C 218.371094 83.527344 252.855469 80.585938 284.050781 79.714844 C 331.949219 78.378906 426.8125 79.09375 474.214844 85.804688 C 480.414062 86.683594 486.605469 87.621094 492.789062 88.625 C 494.84375 88.957031 496.246094 90.867188 495.90625 92.875 C 495.5625 94.882812 493.609375 96.25 491.550781 95.917969 C 485.417969 94.921875 479.277344 93.992188 473.125 93.121094 C 426.160156 86.472656 331.726562 85.777344 284.265625 87.105469 C 263.269531 87.695312 242.15625 89.226562 221.378906 92.28125 C 208.414062 94.1875 195.308594 96.710938 182.589844 100.226562 C 180.472656 104.277344 178.382812 108.136719 176.460938 111.675781 C 169.632812 124.265625 162.300781 136.609375 154.65625 148.742188 C 145.980469 162.503906 136.871094 176.023438 127.066406 189.046875 C 119.261719 199.414062 110.894531 209.929688 101.34375 218.816406 C 93.484375 226.125 77.0625 235.472656 66.691406 227.921875 C 58.773438 222.164062 60.941406 210.648438 63.699219 202.820312 C 80.332031 155.652344 134.035156 117.746094 177.304688 94.015625 C 180.964844 86.757812 184.628906 79.28125 187.546875 71.660156 Z M 171.105469 105.949219 C 132.378906 128.40625 85.628906 163.050781 70.765625 205.195312 C 69.265625 209.449219 66.660156 218.804688 71.152344 222.078125 C 73.847656 224.035156 78.3125 223.355469 81.300781 222.46875 C 86.792969 220.839844 92.058594 217.375 96.1875 213.535156 C 105.414062 204.953125 113.507812 194.742188 121.042969 184.726562 C 130.722656 171.863281 139.726562 158.511719 148.289062 144.917969 C 156.324219 132.175781 163.996094 119.203125 171.105469 105.949219 "/>
<path fill-rule="nonzero" fill="rgb(10.195923%, 10.195923%, 9.411621%)" fill-opacity="1" d="M 108.171875 58.378906 C 103.46875 63.203125 99.058594 68.773438 96.003906 74.730469 C 86.757812 92.75 100.933594 95.746094 115.261719 88.894531 C 122.90625 85.238281 130.363281 81.21875 137.699219 77.007812 L 137.699219 85.441406 C 131.421875 88.96875 125.050781 92.335938 118.546875 95.445312 C 109.980469 99.542969 96.648438 102.542969 89.3125 94.65625 C 83.253906 88.136719 85.703125 78.511719 89.324219 71.464844 C 90.699219 68.777344 92.316406 66.164062 94.101562 63.648438 C 78.726562 71.164062 62.351562 76.464844 44.773438 79.449219 C 42.71875 79.800781 40.753906 78.449219 40.390625 76.441406 C 40.035156 74.4375 41.417969 72.515625 43.476562 72.167969 C 67.160156 68.140625 88.539062 59.75 108.191406 47.21875 C 113.792969 43.644531 118.992188 39.523438 124.804688 36.304688 C 130.636719 33.082031 140.988281 29.890625 145.273438 37.03125 C 148.648438 42.648438 144.308594 48.996094 139.71875 52.429688 C 130.410156 59.394531 119.378906 60.484375 108.171875 58.378906 Z M 115.105469 51.945312 C 122.34375 52.460938 129.21875 51.09375 135.175781 46.636719 C 136.382812 45.734375 139.839844 42.402344 138.828125 40.71875 C 137.480469 38.476562 130.125 41.75 128.492188 42.652344 C 123.832031 45.230469 119.199219 48.507812 115.105469 51.945312 "/>
<path fill-rule="nonzero" fill="rgb(10.195923%, 10.195923%, 9.411621%)" fill-opacity="1" stroke-width="0.216" stroke-linecap="butt" stroke-linejoin="miter" stroke="rgb(10.195923%, 10.195923%, 9.411621%)" stroke-opacity="1" stroke-miterlimit="22.925586" d="M 230.023868 200.271487 C 230.110123 198.679693 230.49827 197.209441 231.180467 195.86465 C 231.862664 194.515939 232.752657 193.35934 233.854366 192.383093 C 234.952154 191.414686 236.226373 190.669759 237.673101 190.148309 C 239.11983 189.634701 240.656733 189.415143 242.283813 189.505319 C 243.605079 189.57197 244.812647 189.811131 245.918276 190.234564 C 247.023906 190.654076 248.000154 191.222573 248.843098 191.943977 C 249.686043 192.66146 250.383923 193.508326 250.928896 194.488494 C 251.477791 195.464742 251.858096 196.546847 252.077654 197.734811 L 245.236079 197.374109 C 244.851853 197.350585 244.518596 197.468205 244.236308 197.723049 C 243.95794 197.973972 243.805034 198.291547 243.78543 198.667931 C 243.761906 199.028633 243.883447 199.350128 244.13437 199.632417 C 244.385293 199.910785 244.702868 200.067612 245.087094 200.083294 L 253.504779 200.52633 C 253.92037 200.534172 254.277151 200.420472 254.582964 200.189152 C 254.884855 199.957833 255.037762 199.640258 255.041682 199.236429 C 254.975031 197.55054 254.610408 195.970508 253.955656 194.492415 C 253.304824 193.018242 252.422673 191.720499 251.309202 190.607028 C 250.199651 189.489636 248.886226 188.587881 247.372846 187.909605 C 245.855546 187.227408 244.204942 186.839261 242.413195 186.745165 C 241.084087 186.678514 239.786344 186.77653 238.531729 187.043136 C 237.277113 187.309742 236.100911 187.721413 235.003123 188.282069 C 233.901414 188.838804 232.893801 189.524922 231.972443 190.340422 C 231.055005 191.152001 230.251268 192.069439 229.56907 193.084893 C 228.890794 194.096427 228.349741 195.198136 227.945912 196.382179 C 227.538162 197.562302 227.299001 198.801234 227.224508 200.102898 C 227.157857 201.373196 227.255873 202.61997 227.522479 203.839299 C 227.789085 205.054707 228.200756 206.203465 228.757491 207.28165 C 229.314227 208.363755 230.004265 209.359606 230.831527 210.273123 C 231.654868 211.182719 232.587989 211.982536 233.619126 212.656892 C 234.650263 213.335169 235.771575 213.876222 236.990904 214.280051 C 238.210234 214.68388 239.492294 214.919121 240.837084 214.993613 C 242.777817 215.09163 244.640137 214.840707 246.424043 214.233003 C 248.21187 213.621378 249.862473 212.652972 251.371932 211.327784 C 251.685586 211.06902 251.846334 210.755366 251.858096 210.394664 C 251.869858 210.033962 251.752238 209.708546 251.501315 209.418416 C 251.250392 209.143969 250.928896 208.994984 250.548591 208.967539 C 250.160445 208.940094 249.819346 209.057715 249.525296 209.3204 C 248.309887 210.37114 246.961175 211.139592 245.487002 211.629676 C 244.01675 212.115839 242.522974 212.319714 241.013515 212.241301 C 239.441325 212.158967 237.971072 211.790424 236.594916 211.139592 C 235.222681 210.48876 234.034717 209.626212 233.031025 208.551948 C 232.031253 207.477683 231.25496 206.230909 230.709986 204.807705 C 230.161092 203.388421 229.933693 201.875042 230.023868 200.271487 Z M 230.023868 200.271487 " transform="matrix(0.996321, 0, 0, -0.996321, 1.591847, 255.10897)"/>
<path fill-rule="nonzero" fill="rgb(10.195923%, 10.195923%, 9.411621%)" fill-opacity="1" stroke-width="0.216" stroke-linecap="butt" stroke-linejoin="miter" stroke="rgb(10.195923%, 10.195923%, 9.411621%)" stroke-opacity="1" stroke-miterlimit="22.925586" d="M 270.740057 212.970546 C 270.751819 212.507907 270.93217 212.11976 271.28111 211.813948 C 271.63397 211.500294 272.029958 211.355229 272.476915 211.36307 C 272.963078 211.378753 273.370828 211.547342 273.692323 211.872758 C 274.017739 212.202094 274.174566 212.594161 274.162804 213.060722 C 274.151042 213.51944 273.974612 213.915428 273.629593 214.236923 C 273.288494 214.56626 272.872903 214.719166 272.382819 214.707404 C 272.163261 214.703483 271.947624 214.652515 271.743749 214.562339 C 271.535953 214.468243 271.363444 214.342782 271.206617 214.189875 C 271.057631 214.033048 270.940011 213.848777 270.853756 213.63706 C 270.775343 213.425344 270.732215 213.201866 270.740057 212.970546 Z M 263.36135 212.782354 C 263.373112 212.319714 263.549543 211.931568 263.890641 211.621835 C 264.23174 211.316022 264.63949 211.163116 265.117812 211.178799 C 265.592213 211.190561 265.988201 211.35915 266.313617 211.684565 C 266.639033 212.013902 266.79586 212.405969 266.784098 212.868609 C 266.768415 213.335169 266.595905 213.727236 266.250886 214.052652 C 265.909788 214.374147 265.502038 214.530974 265.027636 214.519212 C 264.549314 214.50745 264.153326 214.33102 263.82791 213.989921 C 263.502494 213.648822 263.345668 213.244993 263.36135 212.782354 Z M 259.401471 206.905265 C 259.389709 207.293412 259.519091 207.622748 259.777855 207.877592 C 260.03662 208.140277 260.373797 208.277501 260.785468 208.289263 C 261.173615 208.297104 261.499031 208.179484 261.765636 207.932481 C 262.032242 207.685479 262.169466 207.367904 262.177307 206.975837 L 262.42823 197.879876 L 262.42823 197.774018 C 262.502723 195.460821 263.082982 193.700439 264.161167 192.500713 C 265.235432 191.293146 266.701764 190.716807 268.556242 190.763855 C 269.473679 190.787379 270.332307 190.991254 271.128203 191.371559 C 271.9241 191.751864 272.62198 192.277234 273.198319 192.935908 C 273.786419 193.594581 274.237297 194.363032 274.562713 195.237343 C 274.888129 196.115573 275.037114 197.060455 275.009669 198.071989 L 274.762667 207.254205 C 274.754826 207.63059 274.876367 207.956005 275.135131 208.242215 C 275.401737 208.524503 275.719311 208.669568 276.107458 208.677409 C 276.491684 208.685251 276.82102 208.559789 277.103309 208.289263 C 277.385597 208.022657 277.530662 207.701162 277.542424 207.324777 L 278.016826 189.638622 C 278.028588 189.246554 277.899205 188.913297 277.6326 188.63885 C 277.362073 188.364403 277.040578 188.223259 276.656352 188.211497 C 276.252523 188.203655 275.919266 188.329117 275.65658 188.587881 C 275.386054 188.850566 275.24883 189.172062 275.240989 189.568049 L 275.174338 191.889088 C 274.331393 190.752093 273.319859 189.834655 272.135816 189.128934 C 270.951773 188.427134 269.681475 188.05467 268.31316 188.019384 C 267.027179 187.988018 265.86274 188.191893 264.81592 188.63885 C 263.773021 189.081886 262.875187 189.728797 262.118497 190.579583 C 261.361807 191.426448 260.773706 192.461506 260.346353 193.680835 C 259.92292 194.904085 259.68768 196.2724 259.644552 197.789701 L 259.644552 197.813225 Z M 259.401471 206.905265 " transform="matrix(0.996321, 0, 0, -0.996321, 1.591847, 255.10897)"/>
<path fill-rule="nonzero" fill="rgb(10.195923%, 10.195923%, 9.411621%)" fill-opacity="1" stroke-width="0.216" stroke-linecap="butt" stroke-linejoin="miter" stroke="rgb(10.195923%, 10.195923%, 9.411621%)" stroke-opacity="1" stroke-miterlimit="22.925586" d="M 301.654563 189.854259 C 301.654563 189.462191 301.52518 189.136775 301.262495 188.87409 C 300.995889 188.611405 300.662632 188.478102 300.266644 188.474182 C 299.878498 188.474182 299.553082 188.599643 299.282555 188.858408 C 299.012029 189.117172 298.878726 189.438667 298.874805 189.830735 L 298.792471 198.903172 L 298.792471 199.012951 C 298.741503 201.330068 298.196529 203.102212 297.15363 204.329383 C 296.114652 205.556554 294.664003 206.164258 292.813445 206.148575 C 291.90777 206.140734 291.060904 205.960383 290.272849 205.607522 C 289.476952 205.250741 288.790835 204.764578 288.194892 204.145111 C 287.59895 203.525645 287.128469 202.792479 286.77953 201.953455 C 286.43059 201.110511 286.246318 200.200914 286.226715 199.236429 L 286.309049 189.768004 C 286.309049 189.375937 286.175746 189.042679 285.905219 188.776074 C 285.634693 188.505547 285.305356 188.368324 284.91721 188.364403 C 284.532984 188.360482 284.203647 188.493785 283.92528 188.760391 C 283.650833 189.023076 283.509688 189.352412 283.505768 189.74448 L 283.348941 207.434556 C 283.34502 207.814861 283.482244 208.136356 283.764532 208.406883 C 284.0429 208.677409 284.376157 208.814633 284.760383 208.818553 C 285.14853 208.822474 285.473945 208.689171 285.744472 208.422565 C 286.011078 208.15988 286.144381 207.838385 286.148301 207.462001 L 286.175746 205.137042 C 287.038294 206.242671 288.06551 207.140505 289.249553 207.822703 C 290.437517 208.5049 291.715657 208.85384 293.080051 208.861681 C 294.35427 208.877364 295.506947 208.653885 296.545926 208.199087 C 297.573142 207.744289 298.467055 207.089537 299.208063 206.238751 C 299.94907 205.380123 300.517567 204.341145 300.925317 203.121816 C 301.325226 201.902486 301.540863 200.542013 301.572228 199.036475 L 301.572228 198.926696 Z M 301.654563 189.854259 " transform="matrix(0.996321, 0, 0, -0.996321, 1.591847, 255.10897)"/>
<path fill-rule="nonzero" fill="rgb(10.195923%, 10.195923%, 9.411621%)" fill-opacity="1" stroke-width="0.216" stroke-linecap="butt" stroke-linejoin="miter" stroke="rgb(10.195923%, 10.195923%, 9.411621%)" stroke-opacity="1" stroke-miterlimit="22.925586" d="M 308.480454 198.577756 C 308.472613 197.534857 308.672567 196.550768 309.072476 195.63333 C 309.476305 194.711972 310.021279 193.904314 310.711317 193.210355 C 311.405276 192.524237 312.224697 191.971422 313.1735 191.563672 C 314.118382 191.152001 315.141677 190.940285 316.235545 190.936364 C 317.333333 190.928523 318.356629 191.124557 319.309353 191.524465 C 320.258155 191.920453 321.089338 192.461506 321.791139 193.147624 C 322.485098 193.833742 323.045754 194.633559 323.449583 195.547076 C 323.853413 196.464513 324.061208 197.444681 324.06905 198.48758 C 324.076891 199.542241 323.880857 200.534172 323.484869 201.463371 C 323.092802 202.392571 322.547828 203.20415 321.853869 203.894188 C 321.15991 204.584227 320.34049 205.133121 319.399528 205.53695 C 318.446805 205.94078 317.43135 206.144655 316.333562 206.152496 C 315.247536 206.156417 314.232081 205.964304 313.283278 205.572236 C 312.330555 205.176248 311.499372 204.643037 310.78973 203.96084 C 310.080089 203.274722 309.523353 202.470984 309.107762 201.549626 C 308.696091 200.624347 308.484375 199.636338 308.480454 198.577756 Z M 326.821362 190.806982 L 326.817441 190.6776 C 326.797838 189.140696 326.503787 187.737095 325.939211 186.458956 C 325.378554 185.180816 324.614023 184.086949 323.6613 183.173432 C 322.704655 182.259915 321.591184 181.554194 320.313045 181.056269 C 319.034906 180.554422 317.674432 180.311341 316.235545 180.315261 C 314.886834 180.327023 313.58125 180.570105 312.330555 181.056269 C 311.072019 181.542432 310.001675 182.220708 309.119524 183.095018 C 308.778425 183.428276 308.609836 183.796819 308.613757 184.192807 C 308.613757 184.592716 308.770584 184.929893 309.088158 185.20042 C 309.307716 185.388612 309.523353 185.502312 309.723307 185.545439 C 309.923262 185.584646 310.115375 185.584646 310.299646 185.541518 C 310.483918 185.498391 310.656428 185.423898 310.821096 185.31804 C 310.985764 185.220023 311.13867 185.110244 311.287656 184.992624 C 312.036504 184.337872 312.852004 183.855629 313.722394 183.541975 C 314.596704 183.236163 315.521983 183.087177 316.49823 183.095018 C 317.537208 183.10286 318.513456 183.298893 319.426973 183.683119 C 320.34049 184.071266 321.136386 184.604478 321.818583 185.286675 C 322.49686 185.972792 323.030071 186.784372 323.422139 187.721413 C 323.814206 188.658453 324.01416 189.693511 324.022001 190.818744 L 324.022001 191.473497 C 323.041833 190.450201 321.881314 189.646463 320.548285 189.062283 C 319.219177 188.478102 317.77637 188.187973 316.219862 188.199735 C 314.769213 188.207576 313.400899 188.485944 312.110997 189.038759 C 310.825016 189.587653 309.703704 190.332581 308.74706 191.273542 C 307.790416 192.206662 307.033726 193.312292 306.484832 194.574749 C 305.939858 195.837205 305.669332 197.178076 305.677173 198.593439 C 305.685014 200.028405 305.971223 201.373196 306.539721 202.635652 C 307.100377 203.90203 307.864908 204.995897 308.837235 205.925097 C 309.801721 206.854296 310.934795 207.583541 312.228617 208.116753 C 313.522439 208.653885 314.894675 208.91657 316.349245 208.908729 C 317.901831 208.896967 319.344639 208.595075 320.669826 207.995212 C 321.991093 207.391429 323.13985 206.568087 324.112177 205.517347 L 324.123939 207.51689 C 324.123939 207.908957 324.265083 208.230453 324.53953 208.481376 C 324.817898 208.732299 325.147235 208.85776 325.531461 208.85384 C 325.919607 208.85384 326.248944 208.724457 326.51947 208.469614 C 326.793917 208.21477 326.92722 207.893275 326.92722 207.501207 Z M 326.821362 190.806982 " transform="matrix(0.996321, 0, 0, -0.996321, 1.591847, 255.10897)"/>
<path fill-rule="nonzero" fill="rgb(10.195923%, 10.195923%, 9.411621%)" fill-opacity="1" stroke-width="0.216" stroke-linecap="butt" stroke-linejoin="miter" stroke="rgb(10.195923%, 10.195923%, 9.411621%)" stroke-opacity="1" stroke-miterlimit="22.925586" d="M 344.299722 213.778205 C 344.397739 213.986 344.519279 214.166351 344.680027 214.315337 C 344.836854 214.460402 345.021126 214.578022 345.228921 214.664277 C 345.440638 214.746611 345.656275 214.785818 345.879753 214.781897 C 346.365916 214.770135 346.773666 214.597625 347.103003 214.260447 C 347.428419 213.919349 347.585246 213.51944 347.577404 213.056801 C 347.573484 212.594161 347.397053 212.209936 347.055955 211.896282 C 346.722698 211.582628 346.307106 211.429722 345.813102 211.441484 C 345.370065 211.449325 344.981919 211.613993 344.644741 211.939409 C 344.311484 212.264825 344.146816 212.656892 344.154657 213.119532 C 344.162498 213.350851 344.213467 213.570409 344.299722 213.778205 Z M 337.2974 214.436878 C 337.638498 214.766214 338.046248 214.926962 338.516729 214.9152 C 338.991131 214.907358 339.39496 214.734849 339.720376 214.39375 C 340.049712 214.052652 340.206539 213.656664 340.198698 213.190104 C 340.190857 212.727464 340.014426 212.343238 339.673328 212.029585 C 339.33615 211.719851 338.932321 211.563024 338.453998 211.574787 C 337.979597 211.582628 337.579688 211.747296 337.254273 212.072712 C 336.924936 212.398128 336.764188 212.790195 336.77595 213.252835 C 336.783792 213.715474 336.960222 214.111462 337.2974 214.436878 Z M 334.576453 195.413773 C 334.9646 194.484573 335.501732 193.672994 336.18785 192.975114 C 336.870047 192.273314 337.681626 191.712658 338.626508 191.289225 C 339.563549 190.865792 340.582924 190.646235 341.676792 190.626631 C 342.778501 190.607028 343.805717 190.787379 344.762361 191.179446 C 345.715085 191.567593 346.554109 192.096883 347.267671 192.771239 C 347.989075 193.445595 348.553652 194.237571 348.973164 195.151088 C 349.388755 196.064604 349.608313 197.040852 349.627916 198.07983 C 349.65144 199.138412 349.467169 200.134263 349.086863 201.063462 C 348.702637 202.000503 348.165505 202.816003 347.475467 203.513883 C 346.785428 204.215683 345.966008 204.77634 345.028967 205.191931 C 344.088005 205.603602 343.06863 205.819239 341.970842 205.842763 C 340.884816 205.862366 339.869361 205.682015 338.916638 205.30171 C 337.959994 204.921405 337.12097 204.392114 336.403487 203.717758 C 335.686003 203.043402 335.113585 202.247506 334.690152 201.330068 C 334.262799 200.412631 334.043241 199.4207 334.019717 198.366039 C 334.000114 197.32314 334.188306 196.342972 334.576453 195.413773 Z M 332.129953 202.44746 C 332.710213 203.705996 333.494347 204.795943 334.474515 205.70946 C 335.454684 206.622977 336.595599 207.34046 337.897263 207.861909 C 339.195006 208.379438 340.571162 208.62644 342.025731 208.598996 C 343.492063 208.571551 344.860378 208.27358 346.130676 207.709003 C 347.400974 207.140505 348.510524 206.383816 349.447565 205.435013 C 350.384606 204.48621 351.121693 203.368818 351.650983 202.094599 C 352.180274 200.81646 352.435118 199.463828 352.407673 198.028862 C 352.380229 196.613499 352.078337 195.276549 351.494157 194.029775 C 350.917818 192.783001 350.141524 191.700896 349.165277 190.783458 C 348.19295 189.866021 347.059875 189.148537 345.766053 188.631009 C 344.476152 188.109559 343.096075 187.862557 341.625823 187.893922 C 340.175174 187.917446 338.81078 188.215417 337.52872 188.779994 C 336.25058 189.348492 335.137109 190.101261 334.196148 191.057905 C 333.243424 192.006708 332.510258 193.116258 331.973126 194.386556 C 331.443835 195.656855 331.192912 196.997725 331.220357 198.417008 C 331.247802 199.848054 331.549693 201.192845 332.129953 202.44746 Z M 332.129953 202.44746 " transform="matrix(0.996321, 0, 0, -0.996321, 1.591847, 255.10897)"/>
<path fill-rule="nonzero" fill="rgb(10.195923%, 10.195923%, 9.411621%)" fill-opacity="1" stroke-width="0.216" stroke-linecap="butt" stroke-linejoin="miter" stroke="rgb(10.195923%, 10.195923%, 9.411621%)" stroke-opacity="1" stroke-miterlimit="22.925586" d="M 359.723649 204.580306 C 360.766548 205.666332 361.997639 206.517118 363.420844 207.128743 C 364.851889 207.744289 366.377031 208.026578 368.008031 207.979529 L 368.184461 207.979529 C 368.662783 207.963847 369.019564 207.826623 369.266567 207.567859 C 369.509649 207.305174 369.623348 206.979758 369.615507 206.587691 C 369.599824 206.183861 369.450838 205.862366 369.164629 205.615364 C 368.870579 205.372282 368.52556 205.254662 368.109968 205.262503 L 367.953141 205.266424 L 367.929617 205.266424 C 366.816146 205.297789 365.761485 205.121359 364.757793 204.725371 C 363.75018 204.333304 362.868029 203.780489 362.107418 203.070847 C 361.342887 202.361205 360.731262 201.522181 360.264702 200.549854 C 359.794221 199.577527 359.547219 198.526787 359.519774 197.397633 L 359.280613 189.152458 C 359.268851 188.764312 359.127707 188.434975 358.85326 188.176211 C 358.578813 187.913526 358.249476 187.788064 357.861329 187.799826 C 357.477103 187.811588 357.143846 187.952732 356.87332 188.2311 C 356.598873 188.505547 356.46557 188.838804 356.481252 189.230872 L 356.99094 206.917027 C 357.002702 207.289491 357.143846 207.607066 357.437897 207.869751 C 357.724106 208.128515 358.065204 208.253977 358.44943 208.246135 C 358.849339 208.230453 359.178675 208.089308 359.429599 207.814861 C 359.680522 207.540414 359.798142 207.214998 359.7903 206.838614 Z M 359.723649 204.580306 " transform="matrix(0.996321, 0, 0, -0.996321, 1.591847, 255.10897)"/>
<path fill-rule="nonzero" fill="rgb(10.195923%, 10.195923%, 9.411621%)" fill-opacity="1" stroke-width="0.216" stroke-linecap="butt" stroke-linejoin="miter" stroke="rgb(10.195923%, 10.195923%, 9.411621%)" stroke-opacity="1" stroke-miterlimit="22.925586" d="M 393.566898 201.839756 L 402.388412 213.562568 C 402.651097 213.844856 402.964751 213.986 403.317611 213.993842 C 403.674392 214.001683 403.995887 213.884063 404.282097 213.63706 C 404.568306 213.409661 404.736895 213.11169 404.787863 212.750988 C 404.838832 212.386366 404.70945 212.021743 404.395796 211.657121 L 394.852878 199.118809 L 394.374556 187.925288 C 394.358873 187.548903 394.209888 187.235249 393.919758 186.988247 C 393.63747 186.733403 393.304212 186.619703 392.919987 186.635386 C 392.53184 186.651069 392.214265 186.796134 391.959422 187.062739 C 391.700657 187.337187 391.583037 187.658682 391.59872 188.035066 L 392.073121 199.205063 L 383.514292 212.484383 C 383.27121 212.782354 383.177114 213.119532 383.224162 213.491996 C 383.26729 213.86838 383.44372 214.182034 383.749533 214.429036 C 384.055345 214.660356 384.404285 214.762294 384.788511 214.723087 C 385.168816 214.687801 385.48247 214.511371 385.721631 214.197717 Z M 393.566898 201.839756 " transform="matrix(0.996321, 0, 0, -0.996321, 1.591847, 255.10897)"/>
<path fill-rule="nonzero" fill="rgb(10.195923%, 10.195923%, 9.411621%)" fill-opacity="1" stroke-width="0.216" stroke-linecap="butt" stroke-linejoin="miter" stroke="rgb(10.195923%, 10.195923%, 9.411621%)" stroke-opacity="1" stroke-miterlimit="22.925586" d="M 404.333065 196.244955 C 404.282097 195.202056 404.435003 194.210126 404.795705 193.273085 C 405.152486 192.336045 405.666094 191.508783 406.328688 190.787379 C 406.987361 190.065975 407.779337 189.481795 408.708536 189.030917 C 409.637736 188.58004 410.649269 188.329117 411.743137 188.278148 C 412.837005 188.223259 413.872063 188.376165 414.840469 188.732946 C 415.804954 189.093648 416.65574 189.595494 417.384985 190.250247 C 418.118151 190.901078 418.706252 191.681292 419.15713 192.575206 C 419.600166 193.47696 419.851089 194.445367 419.902057 195.484345 C 419.956947 196.539006 419.807961 197.538777 419.455101 198.48758 C 419.10224 199.432463 418.596473 200.263645 417.93388 200.981128 C 417.271286 201.702532 416.47931 202.286712 415.554031 202.729748 C 414.624832 203.172784 413.613298 203.423708 412.51943 203.474676 C 411.437325 203.525645 410.410108 203.38058 409.441702 203.02772 C 408.477217 202.674859 407.62251 202.173013 406.885423 201.522181 C 406.148337 200.867429 405.548474 200.091136 405.097597 199.181539 C 404.642799 198.279785 404.387955 197.299616 404.333065 196.244955 Z M 401.533705 196.382179 C 401.612118 197.809304 401.957138 199.142333 402.576604 200.385186 C 403.19215 201.620198 404.01157 202.6827 405.019183 203.568772 C 406.030717 204.454845 407.191236 205.137042 408.508582 205.615364 C 409.825928 206.093686 411.209926 206.301481 412.656654 206.226989 C 414.111224 206.160337 415.459935 205.82708 416.702788 205.227217 C 417.949562 204.631275 419.027747 203.851061 419.933423 202.886575 C 420.843019 201.92209 421.544819 200.804698 422.034904 199.5344 C 422.528908 198.264102 422.752387 196.919311 422.709259 195.500028 L 422.709259 195.460821 L 422.701418 195.351042 L 422.258382 186.698117 C 422.242699 186.30605 422.089793 185.980634 421.799663 185.717949 C 421.509533 185.463105 421.164514 185.341564 420.768526 185.357247 C 420.364697 185.37685 420.043202 185.529756 419.80012 185.815965 C 419.557038 186.106095 419.443339 186.443273 419.459021 186.83534 L 419.537435 188.701581 C 418.502377 187.693968 417.310493 186.894151 415.95394 186.30997 C 414.593466 185.721869 413.142817 185.467026 411.605914 185.545439 C 410.151344 185.616011 408.798712 185.953189 407.536255 186.556973 C 406.273798 187.160756 405.187772 187.952732 404.270335 188.9329 C 403.356818 189.913069 402.655017 191.042222 402.164933 192.328203 C 401.670928 193.610263 401.463133 194.962895 401.533705 196.382179 Z M 401.533705 196.382179 " transform="matrix(0.996321, 0, 0, -0.996321, 1.591847, 255.10897)"/>
<path fill-rule="nonzero" fill="rgb(10.195923%, 10.195923%, 9.411621%)" fill-opacity="1" stroke-width="0.216" stroke-linecap="butt" stroke-linejoin="miter" stroke="rgb(10.195923%, 10.195923%, 9.411621%)" stroke-opacity="1" stroke-miterlimit="22.925586" d="M 430.621177 186.157064 C 430.597653 185.780679 430.440826 185.470946 430.154617 185.223944 C 429.860567 184.980862 429.527309 184.871083 429.143084 184.886766 C 428.758858 184.91029 428.437362 185.063196 428.178598 185.337643 C 427.915913 185.60817 427.802213 185.937506 427.821817 186.313891 L 429.29599 211.366991 C 429.315593 211.755137 429.468499 212.072712 429.76255 212.307952 C 430.048759 212.547113 430.385937 212.652972 430.774083 212.629448 C 431.158309 212.609844 431.479805 212.4687 431.734648 212.202094 C 431.997333 211.927647 432.114954 211.602231 432.09143 211.210164 Z M 430.621177 186.157064 " transform="matrix(0.996321, 0, 0, -0.996321, 1.591847, 255.10897)"/>
<path fill-rule="nonzero" fill="rgb(10.195923%, 10.195923%, 9.411621%)" fill-opacity="1" stroke-width="0.216" stroke-linecap="butt" stroke-linejoin="miter" stroke="rgb(10.195923%, 10.195923%, 9.411621%)" stroke-opacity="1" stroke-miterlimit="22.925586" d="M 438.956528 185.714028 C 438.929083 185.321961 438.772256 185.000466 438.482126 184.753463 C 438.191997 184.50254 437.854819 184.388841 437.470593 184.408444 C 437.082446 184.431968 436.760951 184.584874 436.498266 184.871083 C 436.23166 185.153372 436.110119 185.49055 436.137564 185.878696 L 437.239273 203.517804 C 437.266718 203.909871 437.427465 204.227445 437.725437 204.478369 C 438.023408 204.729292 438.368427 204.842991 438.768336 204.819467 C 439.156482 204.795943 439.470136 204.643037 439.721059 204.360748 C 439.971982 204.07846 440.085682 203.741282 440.058237 203.349215 Z M 438.956528 185.714028 " transform="matrix(0.996321, 0, 0, -0.996321, 1.591847, 255.10897)"/>
<path fill-rule="nonzero" fill="rgb(10.195923%, 10.195923%, 9.411621%)" fill-opacity="1" stroke-width="0.216" stroke-linecap="butt" stroke-linejoin="miter" stroke="rgb(10.195923%, 10.195923%, 9.411621%)" stroke-opacity="1" stroke-miterlimit="22.925586" d="M 450.44802 204.066698 L 453.400287 203.878506 C 453.800195 203.851061 454.121691 203.698155 454.368693 203.423708 C 454.619616 203.14534 454.733316 202.819924 454.705871 202.443539 C 454.678426 202.03971 454.52552 201.714294 454.239311 201.475133 C 453.957022 201.228131 453.612003 201.122273 453.212095 201.149717 L 450.263748 201.34183 L 449.154198 185.02791 C 449.126753 184.651526 448.969926 184.341792 448.679797 184.102631 C 448.389667 183.85955 448.052489 183.749771 447.664342 183.773295 C 447.280116 183.796819 446.962542 183.949725 446.71554 184.228093 C 446.468537 184.506461 446.354838 184.827956 446.382282 185.208261 L 447.487912 201.518261 L 445.049254 201.675087 C 444.665028 201.698611 444.343532 201.855438 444.088689 202.141647 C 443.829924 202.427857 443.716225 202.765034 443.743669 203.153181 C 443.771114 203.529566 443.927941 203.839299 444.221992 204.07846 C 444.516042 204.321542 444.849299 204.43132 445.233525 204.407796 L 447.676104 204.247049 L 448.083854 210.249599 C 448.111299 210.637746 448.264205 210.9514 448.550414 211.18664 C 448.832703 211.41796 449.16596 211.527738 449.550186 211.500294 C 449.934412 211.47677 450.251986 211.331705 450.514672 211.061178 C 450.765595 210.790652 450.883215 210.457395 450.859691 210.065327 Z M 450.44802 204.066698 " transform="matrix(0.996321, 0, 0, -0.996321, 1.591847, 255.10897)"/>
<path fill-rule="nonzero" fill="rgb(10.195923%, 10.195923%, 9.411621%)" fill-opacity="1" stroke-width="0.216" stroke-linecap="butt" stroke-linejoin="miter" stroke="rgb(10.195923%, 10.195923%, 9.411621%)" stroke-opacity="1" stroke-miterlimit="22.925586" d="M 459.939969 184.337872 C 459.912525 183.945805 459.747856 183.62823 459.457726 183.381228 C 459.167597 183.130305 458.826498 183.024446 458.442272 183.04797 C 458.061967 183.075415 457.736551 183.232242 457.473866 183.518451 C 457.215102 183.808581 457.093561 184.141838 457.124926 184.533905 L 458.422669 202.161251 C 458.450114 202.553318 458.614782 202.866972 458.912753 203.117895 C 459.214645 203.364897 459.571426 203.474676 459.967414 203.447232 C 460.347719 203.419787 460.665294 203.259039 460.908375 202.976751 C 461.159299 202.690542 461.265157 202.353364 461.237712 201.965217 Z M 459.939969 184.337872 " transform="matrix(0.996321, 0, 0, -0.996321, 1.591847, 255.10897)"/>
<path fill-rule="nonzero" fill="rgb(10.195923%, 10.195923%, 9.411621%)" fill-opacity="1" stroke-width="0.216" stroke-linecap="butt" stroke-linejoin="miter" stroke="rgb(10.195923%, 10.195923%, 9.411621%)" stroke-opacity="1" stroke-miterlimit="22.925586" d="M 469.627952 200.275407 C 470.337594 200.969366 471.153094 201.510419 472.066611 201.906407 C 472.976207 202.294554 473.944613 202.44746 474.963988 202.361205 C 476.234286 202.259268 477.351678 201.882883 478.312242 201.235972 C 479.276728 200.589061 480.025577 199.76572 480.566629 198.762027 C 481.413495 199.65202 482.43679 200.330297 483.632596 200.796857 C 484.82448 201.263417 486.04773 201.447688 487.306266 201.34183 C 488.309958 201.259496 489.223475 201.000732 490.046817 200.561616 C 490.874078 200.122501 491.571958 199.565765 492.136535 198.887489 C 492.697191 198.205292 493.128465 197.425078 493.426437 196.546847 C 493.720487 195.664696 493.842028 194.747258 493.791059 193.794535 C 493.806742 193.747487 493.806742 193.684756 493.7989 193.594581 L 492.767764 181.718862 C 492.736398 181.330716 492.575651 181.017062 492.285521 180.777901 C 491.999312 180.54266 491.662134 180.440723 491.281828 180.472088 C 490.889761 180.499533 490.572187 180.660281 490.317343 180.942569 C 490.054658 181.224858 489.940958 181.562035 489.976244 181.950182 L 491.011302 193.869028 C 491.062271 194.492415 490.991699 195.080516 490.795665 195.62941 C 490.595711 196.186145 490.309502 196.672309 489.925276 197.095741 C 489.54497 197.523095 489.086252 197.868114 488.55304 198.13472 C 488.019829 198.401326 487.44349 198.565994 486.824023 198.616963 C 486.169271 198.671852 485.541963 198.60128 484.930338 198.401326 C 484.318713 198.205292 483.761978 197.919083 483.260132 197.546619 C 482.758286 197.174155 482.350536 196.731119 482.02904 196.209669 C 481.707545 195.696061 481.523274 195.131484 481.468384 194.527701 L 480.445089 182.734317 C 480.417644 182.34617 480.260817 182.032516 479.978528 181.793355 C 479.69624 181.558115 479.362983 181.452257 478.982678 181.483622 C 478.598452 181.514987 478.276956 181.675735 478.018192 181.958023 C 477.759428 182.240312 477.641807 182.573569 477.681014 182.961716 L 478.70823 194.841355 L 478.719992 194.970737 C 478.743517 195.594124 478.653341 196.174383 478.457307 196.715436 C 478.257353 197.252568 477.971144 197.73089 477.59868 198.146482 C 477.226216 198.562073 476.779259 198.899251 476.25781 199.161936 C 475.73636 199.4207 475.167863 199.577527 474.548396 199.628496 C 473.897565 199.683386 473.266336 199.616734 472.654711 199.424621 C 472.043087 199.236429 471.490272 198.95414 470.996267 198.581676 C 470.502262 198.205292 470.098433 197.762256 469.776938 197.244727 C 469.455442 196.727198 469.271171 196.166542 469.220202 195.558838 L 468.196906 183.769374 C 468.165541 183.377307 468.000873 183.063653 467.702902 182.816651 C 467.40493 182.573569 467.063832 182.467711 466.683527 182.499076 C 466.299301 182.530442 465.981726 182.691189 465.730803 182.981319 C 465.483801 183.267528 465.374022 183.608627 465.405387 184.000694 L 466.930529 201.628039 C 466.965815 202.004424 467.130483 202.314157 467.436296 202.557239 C 467.742108 202.800321 468.083207 202.906179 468.467433 202.874813 C 468.855579 202.843448 469.165313 202.6827 469.408394 202.392571 C 469.651476 202.106361 469.753414 201.773104 469.722048 201.39672 Z M 469.627952 200.275407 " transform="matrix(0.996321, 0, 0, -0.996321, 1.591847, 255.10897)"/>
<path fill-rule="nonzero" fill="rgb(10.195923%, 10.195923%, 9.411621%)" fill-opacity="1" stroke-width="0.216" stroke-linecap="butt" stroke-linejoin="miter" stroke="rgb(10.195923%, 10.195923%, 9.411621%)" stroke-opacity="1" stroke-miterlimit="22.925586" d="M 239.637358 147.060114 C 239.668724 146.319107 239.837313 145.632989 240.143125 145.001761 C 240.452858 144.370532 240.860608 143.829479 241.374217 143.378602 C 241.883904 142.923804 242.479846 142.574864 243.154202 142.335703 C 243.824637 142.092621 244.546041 141.990684 245.306651 142.02597 C 246.067262 142.057335 246.769062 142.229845 247.415973 142.539578 C 248.055043 142.84147 248.603937 143.245299 249.058735 143.743225 C 249.513534 144.24115 249.866394 144.82141 250.113396 145.480083 C 250.360399 146.138756 250.470178 146.836635 250.442733 147.569801 L 249.984014 159.371027 C 249.980094 159.50433 250.0193 159.618029 250.109476 159.704284 C 250.199651 159.794459 250.30943 159.845428 250.434892 159.849349 C 250.579957 159.85719 250.701497 159.817983 250.787752 159.73957 C 250.881848 159.653315 250.928896 159.547457 250.936738 159.414154 L 251.395457 147.601167 L 251.399377 147.569801 C 251.430743 146.715095 251.29744 145.903515 250.999469 145.138984 C 250.701497 144.378374 250.281985 143.704018 249.740933 143.123758 C 249.2038 142.539578 248.56081 142.069097 247.80412 141.708395 C 247.04743 141.351614 246.22801 141.15166 245.341938 141.108532 C 244.444103 141.069326 243.597238 141.194787 242.801341 141.480996 C 242.009366 141.767205 241.315406 142.178876 240.719464 142.716008 C 240.119601 143.25314 239.641279 143.888289 239.280577 144.625376 C 238.919875 145.362462 238.719921 146.16228 238.684635 147.020907 L 238.229837 158.759402 C 238.225916 158.904467 238.269044 159.022087 238.359219 159.112262 C 238.445474 159.202438 238.559173 159.249486 238.692476 159.257327 C 238.821858 159.261248 238.931637 159.225962 239.029654 159.143628 C 239.127671 159.061294 239.17864 158.951515 239.18256 158.80645 Z M 239.637358 147.060114 " transform="matrix(0.996321, 0, 0, -0.996321, 1.591847, 255.10897)"/>
<path fill-rule="nonzero" fill="rgb(10.195923%, 10.195923%, 9.411621%)" fill-opacity="1" stroke-width="0.216" stroke-linecap="butt" stroke-linejoin="miter" stroke="rgb(10.195923%, 10.195923%, 9.411621%)" stroke-opacity="1" stroke-miterlimit="22.925586" d="M 259.840586 143.429571 L 264.627728 155.262162 C 264.670855 155.387623 264.75711 155.477799 264.87473 155.536609 C 264.99235 155.591498 265.117812 155.599339 265.247194 155.556212 C 265.376576 155.505243 265.462831 155.422909 265.509879 155.305289 C 265.560848 155.187669 265.556927 155.062207 265.502038 154.924984 L 258.295841 137.199621 C 258.237031 137.066319 258.150776 136.968302 258.037076 136.917333 C 257.923377 136.866364 257.793995 136.866364 257.656771 136.917333 C 257.53131 136.96046 257.452896 137.042795 257.421531 137.160415 C 257.394086 137.278035 257.405848 137.399576 257.460737 137.528958 L 259.389709 142.292576 L 253.493017 154.470186 C 253.442048 154.603488 253.434206 154.725029 253.473413 154.84265 C 253.516541 154.96027 253.602795 155.046525 253.724336 155.113176 C 253.838036 155.164145 253.959577 155.168065 254.081117 155.124938 C 254.206579 155.07789 254.296754 154.991635 254.363406 154.862253 Z M 259.840586 143.429571 " transform="matrix(0.996321, 0, 0, -0.996321, 1.591847, 255.10897)"/>
<path fill-rule="nonzero" fill="rgb(10.195923%, 10.195923%, 9.411621%)" fill-opacity="1" stroke-width="0.216" stroke-linecap="butt" stroke-linejoin="miter" stroke="rgb(10.195923%, 10.195923%, 9.411621%)" stroke-opacity="1" stroke-miterlimit="22.925586" d="M 268.191619 148.851861 C 268.211223 148.052044 268.383732 147.299275 268.713069 146.593554 C 269.046326 145.887833 269.489362 145.280128 270.042177 144.762599 C 270.594992 144.245071 271.245823 143.841241 271.98291 143.551112 C 272.723917 143.257061 273.523734 143.127679 274.366679 143.155124 C 275.217465 143.178648 276.00552 143.36684 276.738686 143.704018 C 277.467931 144.037275 278.095239 144.484232 278.616689 145.037047 C 279.138138 145.585941 279.549809 146.22501 279.839938 146.946414 C 280.130068 147.671739 280.263371 148.43627 280.243768 149.236087 C 280.224164 150.055508 280.055575 150.816118 279.726239 151.52184 C 279.404744 152.227561 278.961708 152.839186 278.408893 153.352794 C 277.852157 153.870323 277.205246 154.270231 276.46816 154.560361 C 275.723232 154.84657 274.935177 154.975952 274.084391 154.944587 C 273.245367 154.921063 272.461232 154.744633 271.728066 154.407455 C 270.998821 154.074198 270.367593 153.635082 269.842223 153.082267 C 269.309011 152.529452 268.901261 151.894303 268.607211 151.168979 C 268.309239 150.443655 268.172016 149.671282 268.191619 148.851861 Z M 281.314111 144.362691 L 281.314111 144.307801 L 281.318032 144.292119 C 281.333715 143.241378 281.172967 142.284734 280.831869 141.422186 C 280.49077 140.555717 280.016369 139.81079 279.412585 139.187403 C 278.804881 138.564016 278.091318 138.070011 277.267977 137.71715 C 276.448556 137.360369 275.570326 137.168256 274.633285 137.136891 C 274.190249 137.125129 273.755054 137.152573 273.319859 137.219225 C 272.884665 137.285876 272.461232 137.391734 272.053482 137.528958 C 271.649653 137.670102 271.269347 137.842612 270.908646 138.050407 C 270.547944 138.258203 270.218607 138.501285 269.928477 138.779653 C 269.810857 138.889431 269.748126 139.010972 269.744206 139.144275 C 269.740285 139.277578 269.795174 139.395198 269.901033 139.493215 C 270.042177 139.622597 270.17548 139.665725 270.300941 139.626518 C 270.422482 139.587311 270.540102 139.528501 270.649881 139.446167 C 271.198775 138.967845 271.814321 138.611064 272.504359 138.379744 C 273.194398 138.148424 273.911881 138.050407 274.668571 138.085693 C 275.47623 138.113138 276.232919 138.277806 276.938641 138.59146 C 277.644362 138.905114 278.255987 139.336388 278.773515 139.881362 C 279.287124 140.426335 279.687032 141.077167 279.969321 141.829936 C 280.25553 142.582705 280.384912 143.417809 280.361388 144.331325 L 280.330023 145.789816 C 280.039893 145.272287 279.690953 144.801806 279.279282 144.374453 C 278.867612 143.947099 278.408893 143.578556 277.899205 143.268823 C 277.385597 142.955169 276.836703 142.708167 276.244681 142.527816 C 275.65266 142.347465 275.037114 142.245527 274.390203 142.222003 C 273.421797 142.194559 272.512201 142.343544 271.661415 142.672881 C 270.810629 143.006138 270.05786 143.468777 269.407028 144.06864 C 268.756196 144.668503 268.238667 145.378145 267.854441 146.189724 C 267.466295 147.001304 267.26242 147.879534 267.238896 148.820496 C 267.219292 149.773219 267.376119 150.671054 267.725059 151.513998 C 268.070078 152.353022 268.552321 153.090109 269.171787 153.725258 C 269.795174 154.360407 270.520499 154.870094 271.355602 155.25432 C 272.190706 155.638546 273.09246 155.846342 274.056946 155.877707 C 274.703857 155.897311 275.327244 155.83458 275.923186 155.693436 C 276.523049 155.548371 277.087626 155.340575 277.612996 155.062207 C 278.138366 154.779919 278.612768 154.43882 279.044042 154.042832 C 279.475316 153.639003 279.843859 153.188126 280.161434 152.694121 L 280.086941 155.611101 C 280.08302 155.740484 280.130068 155.858104 280.220244 155.944359 C 280.31434 156.034534 280.420198 156.081582 280.54958 156.081582 C 280.686804 156.089423 280.800503 156.050217 280.89852 155.967883 C 280.988696 155.881628 281.039664 155.77577 281.039664 155.642467 Z M 281.314111 144.362691 " transform="matrix(0.996321, 0, 0, -0.996321, 1.591847, 255.10897)"/>
<path fill-rule="nonzero" fill="rgb(10.195923%, 10.195923%, 9.411621%)" fill-opacity="1" stroke-width="0.216" stroke-linecap="butt" stroke-linejoin="miter" stroke="rgb(10.195923%, 10.195923%, 9.411621%)" stroke-opacity="1" stroke-miterlimit="22.925586" d="M 295.299152 146.370075 C 295.040387 145.860388 294.726733 145.389907 294.35819 144.974316 C 293.989647 144.554804 293.581897 144.186261 293.13102 143.876527 C 292.680142 143.566794 292.197899 143.323713 291.684291 143.147282 C 291.170683 142.974773 290.633551 142.880676 290.080736 142.868914 C 289.237791 142.84539 288.485022 142.974773 287.814587 143.24922 C 287.144152 143.523667 286.579575 143.935337 286.105174 144.480311 C 285.630772 145.029205 285.262229 145.703561 284.999544 146.507299 C 284.736859 147.311037 284.599635 148.232395 284.580032 149.271373 L 284.478095 155.72088 C 284.478095 155.854183 284.517301 155.967883 284.595715 156.061979 C 284.678049 156.152154 284.79959 156.199202 284.956417 156.203123 C 285.081878 156.207044 285.191657 156.163916 285.277912 156.077661 C 285.368087 155.987486 285.415135 155.877707 285.419056 155.744404 L 285.520994 149.298818 C 285.548438 147.436498 285.975792 146.04858 286.787371 145.127222 C 287.606791 144.209785 288.724183 143.762828 290.151308 143.802035 C 290.864871 143.813797 291.531385 143.974544 292.154772 144.276436 C 292.786 144.578328 293.327053 144.982157 293.789693 145.495765 C 294.248411 146.009373 294.609113 146.605316 294.871798 147.287513 C 295.134483 147.96971 295.259945 148.702876 295.244262 149.48701 L 295.142325 155.963962 C 295.138404 156.093344 295.181532 156.214885 295.267786 156.308981 C 295.354041 156.406998 295.467741 156.457967 295.604964 156.461887 C 295.734346 156.465808 295.840205 156.41876 295.938221 156.324664 C 296.028397 156.230568 296.079366 156.116868 296.079366 155.987486 L 296.283241 143.472698 C 296.283241 143.343316 296.240113 143.229616 296.153858 143.13552 C 296.067604 143.045345 295.957825 142.994376 295.820601 142.990455 C 295.683378 142.986535 295.569678 143.029662 295.483423 143.115917 C 295.389327 143.206092 295.3462 143.315871 295.3462 143.453095 Z M 295.299152 146.370075 " transform="matrix(0.996321, 0, 0, -0.996321, 1.591847, 255.10897)"/>
<path fill-rule="nonzero" fill="rgb(10.195923%, 10.195923%, 9.411621%)" fill-opacity="1" stroke-width="0.216" stroke-linecap="butt" stroke-linejoin="miter" stroke="rgb(10.195923%, 10.195923%, 9.411621%)" stroke-opacity="1" stroke-miterlimit="22.925586" d="M 300.643029 143.53935 C 300.643029 143.406047 300.599902 143.296268 300.513647 143.206092 C 300.427392 143.119838 300.317613 143.07671 300.176469 143.072789 C 300.043166 143.068869 299.929466 143.108075 299.83537 143.19433 C 299.753036 143.280585 299.705988 143.386443 299.702067 143.523667 L 299.509954 160.911851 C 299.509954 161.045154 299.549161 161.154933 299.639337 161.241188 C 299.725591 161.327443 299.83537 161.374491 299.972594 161.378411 C 300.109817 161.378411 300.223517 161.339205 300.313692 161.25295 C 300.403868 161.174536 300.446995 161.060837 300.446995 160.927534 Z M 300.643029 143.53935 " transform="matrix(0.996321, 0, 0, -0.996321, 1.591847, 255.10897)"/>
<path fill-rule="nonzero" fill="rgb(10.195923%, 10.195923%, 9.411621%)" fill-opacity="1" stroke-width="0.216" stroke-linecap="butt" stroke-linejoin="miter" stroke="rgb(10.195923%, 10.195923%, 9.411621%)" stroke-opacity="1" stroke-miterlimit="22.925586" d="M 304.167714 149.792823 C 304.175555 148.989085 304.336303 148.236316 304.649957 147.522753 C 304.967531 146.813111 305.394884 146.197566 305.943779 145.668275 C 306.484832 145.142905 307.127822 144.727313 307.857067 144.421501 C 308.598074 144.119609 309.38613 143.970624 310.236916 143.982386 C 311.036733 143.994148 311.785581 144.143133 312.483461 144.429342 C 313.17742 144.715551 313.792966 145.103698 314.322257 145.593782 C 314.851548 146.079946 315.282822 146.652364 315.612158 147.307116 C 315.937574 147.957948 316.133608 148.655828 316.196338 149.400756 C 316.196338 149.455645 316.20418 149.506614 316.212021 149.5419 C 316.212021 149.620313 316.215942 149.686965 316.219862 149.749695 C 316.223783 149.816347 316.223783 149.882998 316.223783 149.957491 C 316.219862 150.776912 316.063035 151.541443 315.753302 152.255005 C 315.439648 152.964647 315.012295 153.584114 314.467322 154.109484 C 313.922348 154.638775 313.279358 155.050445 312.550113 155.348416 C 311.816947 155.646387 311.02105 155.795373 310.170264 155.77969 C 309.335161 155.771849 308.543185 155.60326 307.810019 155.285686 C 307.072932 154.96027 306.433863 154.532916 305.900651 153.991863 C 305.359598 153.450811 304.936166 152.819582 304.626433 152.098178 C 304.316699 151.380695 304.163793 150.612243 304.167714 149.792823 Z M 303.21499 149.781061 C 303.21107 150.733784 303.391421 151.623777 303.752123 152.45888 C 304.112824 153.293984 304.61075 154.023229 305.241978 154.646616 C 305.877127 155.270003 306.610293 155.767928 307.453238 156.136472 C 308.296182 156.505015 309.201858 156.697128 310.166343 156.71281 C 311.13475 156.724573 312.040425 156.559904 312.879449 156.218806 C 313.722394 155.877707 314.45948 155.407226 315.090709 154.803443 C 315.725858 154.207501 316.227704 153.493938 316.596247 152.674517 C 316.968711 151.855097 317.160824 150.972945 317.176507 150.031984 L 317.176507 149.969253 L 317.211793 143.837321 C 317.215713 143.692256 317.168665 143.570715 317.08241 143.476619 C 316.992235 143.382523 316.874615 143.331554 316.72955 143.331554 C 316.592326 143.323713 316.482547 143.374681 316.396293 143.468777 C 316.306117 143.562874 316.26299 143.680494 316.259069 143.821638 L 316.227704 146.57003 C 315.929733 146.060342 315.56511 145.593782 315.149519 145.166429 C 314.726086 144.739075 314.259526 144.374453 313.745918 144.06472 C 313.23623 143.758907 312.683415 143.519746 312.091394 143.335475 C 311.503293 143.155124 310.887747 143.061027 310.240836 143.053186 C 309.276351 143.037503 308.366755 143.206092 307.52381 143.551112 C 306.673024 143.900051 305.932017 144.374453 305.292947 144.986078 C 304.657798 145.597703 304.152031 146.315186 303.779567 147.134607 C 303.411024 147.954027 303.222832 148.836179 303.21499 149.781061 Z M 303.21499 149.781061 " transform="matrix(0.996321, 0, 0, -0.996321, 1.591847, 255.10897)"/>
<path fill-rule="nonzero" fill="rgb(10.195923%, 10.195923%, 9.411621%)" fill-opacity="1" stroke-width="0.216" stroke-linecap="butt" stroke-linejoin="miter" stroke="rgb(10.195923%, 10.195923%, 9.411621%)" stroke-opacity="1" stroke-miterlimit="22.925586" d="M 321.591184 154.666219 C 321.79898 154.991635 322.042062 155.289606 322.320429 155.556212 C 322.602718 155.822818 322.90461 156.054137 323.233946 156.24625 C 323.563283 156.438363 323.912223 156.587349 324.280766 156.701048 C 324.65715 156.810827 325.041376 156.869637 325.441285 156.869637 C 325.892162 156.869637 326.315595 156.810827 326.723345 156.689286 C 327.127174 156.563825 327.503559 156.395236 327.85642 156.175678 C 328.20928 155.960041 328.515093 155.701277 328.785619 155.395464 C 329.060066 155.089652 329.287465 154.752474 329.471737 154.383931 C 329.679532 154.756395 329.938297 155.093573 330.24803 155.403306 C 330.553843 155.705198 330.902782 155.971803 331.283088 156.191361 C 331.667314 156.410919 332.071143 156.583428 332.494576 156.70889 C 332.918008 156.834351 333.353203 156.901003 333.792318 156.901003 C 334.407864 156.904923 334.984203 156.795145 335.521335 156.579508 C 336.054547 156.363871 336.521107 156.061979 336.921015 155.677753 C 337.320924 155.289606 337.638498 154.84265 337.88158 154.329041 C 338.120741 153.815433 338.250123 153.266539 338.265806 152.686279 C 338.277568 152.666676 338.281489 152.635311 338.281489 152.588263 L 338.238361 143.919655 C 338.238361 143.782431 338.191313 143.672652 338.105059 143.578556 C 338.014883 143.488381 337.909025 143.445253 337.783563 143.445253 C 337.642419 143.445253 337.52872 143.488381 337.438544 143.578556 C 337.344448 143.668732 337.301321 143.782431 337.301321 143.915734 L 337.344448 152.580421 C 337.348369 153.070505 337.246431 153.517462 337.042556 153.929133 C 336.842602 154.348645 336.568155 154.705426 336.234898 155.007318 C 335.90164 155.31313 335.513494 155.548371 335.078299 155.72088 C 334.639184 155.889469 334.176544 155.971803 333.698222 155.971803 C 333.204217 155.967883 332.725895 155.873786 332.271097 155.681674 C 331.816299 155.489561 331.416391 155.230796 331.071371 154.909301 C 330.726352 154.587806 330.451905 154.219263 330.240189 153.799751 C 330.024552 153.380239 329.918694 152.937202 329.914773 152.466722 L 329.875566 143.884369 C 329.875566 143.751066 329.828518 143.641287 329.742263 143.551112 C 329.652088 143.457015 329.538388 143.413888 329.401165 143.409967 C 329.275703 143.413888 329.162004 143.457015 329.063987 143.547191 C 328.969891 143.637366 328.918922 143.747145 328.918922 143.884369 L 328.96597 152.505928 L 328.96597 152.576501 C 328.958129 153.054823 328.856191 153.501779 328.660158 153.91345 C 328.460203 154.329041 328.193597 154.685823 327.864261 154.983794 C 327.534924 155.281765 327.150698 155.517005 326.715504 155.689515 C 326.28423 155.858104 325.833352 155.944359 325.366792 155.940438 C 324.876708 155.940438 324.410148 155.846342 323.963191 155.665991 C 323.516235 155.477799 323.120247 155.234717 322.771307 154.928904 C 322.426288 154.619171 322.143999 154.266311 321.932283 153.858561 C 321.720566 153.454731 321.602946 153.023457 321.583343 152.564739 L 321.536295 143.868686 C 321.536295 143.735383 321.489247 143.617763 321.399071 143.527587 C 321.301054 143.429571 321.195196 143.378602 321.065814 143.382523 C 320.928591 143.378602 320.814891 143.42565 320.724716 143.523667 C 320.630619 143.613842 320.583571 143.731462 320.583571 143.864765 L 320.646302 156.363871 C 320.646302 156.501094 320.69335 156.610873 320.779605 156.70889 C 320.873701 156.802986 320.98348 156.850034 321.120704 156.853955 C 321.257927 156.853955 321.371627 156.806907 321.461802 156.71281 C 321.555898 156.614794 321.599026 156.501094 321.599026 156.367791 Z M 321.591184 154.666219 " transform="matrix(0.996321, 0, 0, -0.996321, 1.591847, 255.10897)"/>
<path fill-rule="nonzero" fill="rgb(10.195923%, 10.195923%, 9.411621%)" fill-opacity="1" stroke-width="0.216" stroke-linecap="butt" stroke-linejoin="miter" stroke="rgb(10.195923%, 10.195923%, 9.411621%)" stroke-opacity="1" stroke-miterlimit="22.925586" d="M 341.715998 150.06727 C 341.704236 149.263532 341.845381 148.506842 342.147272 147.789359 C 342.445243 147.071876 342.864755 146.440647 343.397967 145.903515 C 343.931179 145.366383 344.562407 144.93903 345.287731 144.621455 C 346.016977 144.29996 346.801111 144.135292 347.655818 144.131371 C 348.455635 144.12745 349.208404 144.260753 349.906284 144.53128 C 350.612005 144.801806 351.235392 145.178191 351.772524 145.656513 C 352.313577 146.134835 352.756613 146.695491 353.093791 147.342402 C 353.43881 147.985393 353.650527 148.683272 353.732861 149.42428 C 353.732861 149.479169 353.736781 149.530138 353.748543 149.569344 C 353.748543 149.643837 353.752464 149.710489 353.756385 149.77714 C 353.764226 149.83595 353.768147 149.906522 353.772068 149.984936 C 353.78383 150.800436 353.642685 151.568888 353.348635 152.286371 C 353.050664 153.003854 352.638993 153.631162 352.105782 154.172214 C 351.568649 154.709347 350.937421 155.132779 350.212097 155.450354 C 349.486772 155.764008 348.698717 155.924755 347.84401 155.928676 C 347.004986 155.936517 346.216931 155.787532 345.475924 155.481719 C 344.730996 155.175907 344.088005 154.760315 343.535191 154.231025 C 342.982376 153.701734 342.547181 153.078347 342.221765 152.364784 C 341.90027 151.651222 341.731681 150.886691 341.715998 150.06727 Z M 340.763275 150.071191 C 340.775037 151.023914 340.978912 151.917828 341.359217 152.74509 C 341.735602 153.572351 342.24921 154.285914 342.8922 154.897539 C 343.539111 155.509164 344.284039 155.987486 345.134825 156.344267 C 345.989532 156.693207 346.895207 156.865717 347.859693 156.861796 C 348.83202 156.853955 349.729854 156.669683 350.564957 156.312902 C 351.39614 155.956121 352.125385 155.466037 352.740931 154.850491 C 353.364318 154.238866 353.850481 153.513541 354.203342 152.6902 C 354.556202 151.862938 354.728712 150.976866 354.724791 150.035905 L 354.724791 149.977094 L 354.622854 143.841241 C 354.622854 143.696176 354.571885 143.578556 354.48563 143.48446 C 354.395455 143.386443 354.277834 143.339395 354.128849 143.339395 C 353.991625 143.343316 353.881846 143.394285 353.795592 143.488381 C 353.713257 143.582477 353.67013 143.704018 353.67013 143.849083 L 353.701495 146.593554 C 353.387842 146.087787 353.019298 145.629068 352.584104 145.209556 C 352.15675 144.797886 351.678428 144.441104 351.16482 144.143133 C 350.643371 143.849083 350.090556 143.613842 349.494613 143.445253 C 348.902592 143.276664 348.283125 143.198251 347.640135 143.202172 C 346.671729 143.206092 345.766053 143.390364 344.93095 143.754987 C 344.095847 144.12353 343.35876 144.613614 342.731453 145.240922 C 342.108066 145.864309 341.621902 146.589633 341.269042 147.416895 C 340.916181 148.240236 340.747592 149.130229 340.763275 150.071191 Z M 340.763275 150.071191 " transform="matrix(0.996321, 0, 0, -0.996321, 1.591847, 255.10897)"/>
<path fill-rule="nonzero" fill="rgb(10.195923%, 10.195923%, 9.411621%)" fill-opacity="1" stroke-width="0.216" stroke-linecap="butt" stroke-linejoin="miter" stroke="rgb(10.195923%, 10.195923%, 9.411621%)" stroke-opacity="1" stroke-miterlimit="22.925586" d="M 374.088995 141.132056 C 374.418331 141.104612 374.735906 141.022278 375.026035 140.881133 C 375.320086 140.739989 375.571009 140.555717 375.786646 140.328318 C 375.998362 140.100919 376.163031 139.830393 376.280651 139.528501 C 376.398271 139.226609 376.44924 138.905114 376.441398 138.560095 C 376.429636 138.207234 376.347302 137.877898 376.202237 137.568165 C 376.053252 137.262352 375.861139 136.999667 375.618057 136.776189 C 375.374975 136.55271 375.096607 136.37628 374.775112 136.250819 C 374.449696 136.125357 374.112519 136.062626 373.767499 136.074388 C 373.402877 136.08223 373.065699 136.156722 372.752045 136.293946 C 372.438391 136.439011 372.171785 136.627203 371.944386 136.858523 C 371.713067 137.093763 371.540557 137.36821 371.415096 137.677944 C 371.289634 137.991597 371.230824 138.324855 371.242586 138.677715 L 371.242586 138.689477 C 371.242586 138.795335 371.281793 138.88159 371.348444 138.93648 C 371.422937 138.99921 371.509192 139.030576 371.618971 139.026655 C 371.709146 139.026655 371.779718 138.991369 371.838528 138.920797 C 371.889497 138.850225 371.916942 138.767891 371.913021 138.662032 C 371.90518 138.403268 371.948307 138.160186 372.038483 137.928867 C 372.128658 137.697547 372.25804 137.493672 372.426629 137.321162 C 372.599139 137.144732 372.799093 137.003588 373.026492 136.89773 C 373.261733 136.795792 373.512656 136.736982 373.783182 136.733061 C 374.057629 136.72522 374.312473 136.768347 374.559475 136.862444 C 374.798636 136.95654 375.014273 137.089843 375.186783 137.258432 C 375.363213 137.4231 375.504357 137.619133 375.610216 137.850453 C 375.712153 138.073931 375.770963 138.317013 375.782725 138.571857 C 375.790567 138.850225 375.743519 139.105068 375.645502 139.336388 C 375.543564 139.567708 375.40242 139.767662 375.222069 139.940172 C 375.045639 140.112681 374.830002 140.245984 374.582999 140.34008 C 374.339918 140.438097 374.069391 140.489066 373.775341 140.496907 C 373.520497 140.496907 373.398956 140.610607 373.402877 140.814482 L 373.47737 142.963011 C 373.48129 143.057107 373.520497 143.13552 373.591069 143.19041 C 373.665562 143.245299 373.751817 143.268823 373.838071 143.268823 C 373.912564 143.268823 373.987057 143.237458 374.053708 143.178648 C 374.124281 143.119838 374.155646 143.041424 374.151725 142.947328 Z M 381.020744 158.504558 C 381.11092 158.406541 381.157968 158.300683 381.154047 158.179142 C 381.150126 158.061522 381.095237 157.951743 380.99722 157.861568 C 380.907045 157.767472 380.797266 157.720423 380.656122 157.724344 C 380.518898 157.728265 380.409119 157.779234 380.326785 157.87725 C 379.491682 158.731957 378.558562 159.382789 377.523504 159.817983 C 376.488446 160.261019 375.418103 160.492339 374.312473 160.515863 C 373.520497 160.531546 372.755966 160.449212 372.014959 160.26494 C 371.270031 160.084589 370.576072 159.814063 369.92524 159.469044 C 369.28225 159.120104 368.694149 158.696671 368.160937 158.194825 C 367.623805 157.689058 367.161166 157.132322 366.769098 156.520698 C 366.377031 155.912993 366.071218 155.250399 365.84774 154.540758 C 365.624262 153.831116 365.4988 153.086188 365.475276 152.317736 C 365.451752 151.561046 365.522324 150.835722 365.694834 150.12608 C 365.871264 149.420359 366.126108 148.757765 366.467206 148.130457 C 366.808305 147.50315 367.223896 146.92289 367.721822 146.39752 C 368.219747 145.87215 368.772562 145.413431 369.395949 145.029205 C 370.019336 144.644979 370.693692 144.335246 371.426858 144.111768 C 372.156103 143.880448 372.932396 143.762828 373.751817 143.743225 C 374.865288 143.7197 375.947393 143.888289 376.998134 144.248991 C 378.052795 144.613614 379.021201 145.201715 379.907273 146.021135 C 380.017052 146.126994 380.138593 146.174042 380.264054 146.174042 C 380.389516 146.1662 380.495374 146.123073 380.581629 146.036818 C 380.679646 145.946643 380.718852 145.836864 380.711011 145.703561 C 380.70317 145.570258 380.64828 145.460479 380.562026 145.382066 C 379.581857 144.464628 378.503672 143.805955 377.331391 143.390364 C 376.155189 142.978693 374.951543 142.78658 373.724372 142.814025 C 372.842221 142.833628 371.999276 142.966931 371.191617 143.206092 C 370.383959 143.449174 369.63511 143.778511 368.945072 144.194102 C 368.255033 144.609693 367.631646 145.107619 367.074911 145.691799 C 366.518175 146.268138 366.043774 146.911128 365.659548 147.609008 C 365.271401 148.310808 364.977351 149.059657 364.777396 149.855554 C 364.581363 150.65145 364.495108 151.478712 364.522553 152.33734 C 364.549997 153.15676 364.6833 153.952657 364.922461 154.725029 C 365.161622 155.493481 365.490959 156.222726 365.914392 156.904923 C 366.326062 157.587121 366.827908 158.214428 367.416009 158.782926 C 368.00019 159.351423 368.654942 159.837587 369.376346 160.237495 C 370.09775 160.645245 370.877963 160.951058 371.713067 161.170616 C 372.552091 161.386253 373.434242 161.480349 374.359521 161.460745 C 375.590612 161.433301 376.778576 161.166695 377.927333 160.668769 C 379.07217 160.174765 380.099386 159.44944 381.020744 158.504558 Z M 381.020744 158.504558 " transform="matrix(0.996321, 0, 0, -0.996321, 1.591847, 255.10897)"/>
<path fill-rule="nonzero" fill="rgb(10.195923%, 10.195923%, 9.411621%)" fill-opacity="1" stroke-width="0.216" stroke-linecap="butt" stroke-linejoin="miter" stroke="rgb(10.195923%, 10.195923%, 9.411621%)" stroke-opacity="1" stroke-miterlimit="22.925586" d="M 391.720261 158.700592 C 391.728102 158.900546 391.802595 159.065214 391.94766 159.194596 C 392.088804 159.320058 392.257393 159.382789 392.437744 159.374947 C 392.645539 159.367106 392.814128 159.296534 392.943511 159.15539 C 393.072893 159.022087 393.135624 158.853498 393.127782 158.649623 C 393.119941 158.461431 393.045448 158.300683 392.900383 158.179142 C 392.755318 158.057601 392.582809 157.994871 392.378934 158.002712 C 392.194662 158.010553 392.033914 158.081125 391.904532 158.214428 C 391.77515 158.347731 391.712419 158.512399 391.720261 158.700592 Z M 387.313424 158.853498 C 387.325186 159.053452 387.399679 159.21812 387.536903 159.347503 C 387.670205 159.476885 387.838794 159.535695 388.034828 159.531774 C 388.242624 159.523933 388.411213 159.44944 388.540595 159.312217 C 388.669977 159.174993 388.728787 159.002483 388.720946 158.802529 C 388.713104 158.610416 388.638612 158.45751 388.493547 158.332048 C 388.352403 158.206587 388.179893 158.151697 387.972097 158.159539 C 387.779984 158.163459 387.615316 158.234032 387.493775 158.367334 C 387.368314 158.500637 387.305583 158.661385 387.313424 158.853498 Z M 383.686802 149.388993 C 383.655436 148.585256 383.773057 147.824645 384.055345 147.0954 C 384.333713 146.373996 384.729701 145.731006 385.25115 145.182111 C 385.764758 144.629297 386.384225 144.18234 387.101708 143.841241 C 387.81527 143.504063 388.599405 143.315871 389.454112 143.288426 C 390.300977 143.257061 391.100794 143.390364 391.849643 143.680494 C 392.598491 143.966703 393.261085 144.370532 393.829583 144.88414 C 394.390239 145.397748 394.845037 146.005453 395.186135 146.711174 C 395.523313 147.416895 395.711506 148.165744 395.750712 148.965561 C 395.785998 149.784981 395.664458 150.557354 395.382169 151.286599 C 395.107722 152.011924 394.707813 152.650993 394.194205 153.203808 C 393.672756 153.756623 393.05721 154.195738 392.335806 154.532916 C 391.622244 154.870094 390.838109 155.050445 389.987323 155.07789 C 389.15222 155.109255 388.352403 154.979873 387.603554 154.697585 C 386.850785 154.415296 386.196032 154.015388 385.627535 153.497859 C 385.062958 152.984251 384.604239 152.376546 384.263141 151.670825 C 383.918122 150.969025 383.726009 150.204493 383.686802 149.388993 Z M 382.737999 149.420359 C 382.781126 150.373082 383.008525 151.255234 383.412355 152.074654 C 383.812263 152.890154 384.341554 153.591955 385.004148 154.187897 C 385.670662 154.779919 386.431273 155.242558 387.2899 155.567974 C 388.152448 155.897311 389.065965 156.042375 390.030451 156.01101 C 390.998857 155.975724 391.896691 155.764008 392.727874 155.379782 C 393.562977 154.991635 394.28046 154.481948 394.876402 153.842878 C 395.480186 153.207729 395.942825 152.466722 396.264321 151.627698 C 396.589736 150.784753 396.72696 149.886919 396.683833 148.934195 C 396.640705 147.993234 396.421147 147.115003 396.025159 146.303424 C 395.625251 145.491845 395.09596 144.786124 394.437287 144.190181 C 393.782535 143.594239 393.018003 143.127679 392.155455 142.802263 C 391.288987 142.472926 390.371549 142.323941 389.410984 142.359227 C 388.442578 142.394513 387.544744 142.602309 386.717482 142.990455 C 385.89022 143.378602 385.172737 143.89221 384.568953 144.53128 C 383.961249 145.17427 383.494689 145.911357 383.169273 146.750381 C 382.836016 147.585484 382.694872 148.475477 382.737999 149.420359 Z M 382.737999 149.420359 " transform="matrix(0.996321, 0, 0, -0.996321, 1.591847, 255.10897)"/>
<path fill-rule="nonzero" fill="rgb(10.195923%, 10.195923%, 9.411621%)" fill-opacity="1" stroke-width="0.216" stroke-linecap="butt" stroke-linejoin="miter" stroke="rgb(10.195923%, 10.195923%, 9.411621%)" stroke-opacity="1" stroke-miterlimit="22.925586" d="M 411.11975 155.113176 C 411.256974 155.109255 411.362832 155.054366 411.433404 154.940666 C 411.535341 154.862253 411.578469 154.748553 411.562786 154.61525 C 411.543183 154.474106 411.488293 154.368248 411.394197 154.285914 L 399.64002 143.061027 L 410.637507 142.543499 C 410.782572 142.535657 410.900192 142.49253 410.986447 142.406275 C 411.072702 142.32002 411.115829 142.210241 411.107988 142.076939 C 411.100147 141.947556 411.049178 141.837777 410.951161 141.755443 C 410.853144 141.67703 410.731604 141.637823 410.582618 141.641744 L 398.636328 142.206321 C 398.495183 142.210241 398.381484 142.265131 398.291308 142.355306 C 398.201133 142.453323 398.158006 142.563102 398.161926 142.688563 C 398.169768 142.763056 398.189371 142.837549 398.220736 142.912042 L 398.318753 143.021821 L 410.100375 154.246707 L 399.494955 154.740712 C 399.361652 154.748553 399.247953 154.795601 399.161698 154.885777 C 399.075443 154.975952 399.032316 155.085731 399.040157 155.207272 C 399.047998 155.340575 399.098967 155.450354 399.200905 155.536609 C 399.295001 155.622863 399.412621 155.66207 399.553765 155.658149 Z M 411.11975 155.113176 " transform="matrix(0.996321, 0, 0, -0.996321, 1.591847, 255.10897)"/>
<path fill-rule="nonzero" fill="rgb(10.195923%, 10.195923%, 9.411621%)" fill-opacity="1" stroke-width="0.216" stroke-linecap="butt" stroke-linejoin="miter" stroke="rgb(10.195923%, 10.195923%, 9.411621%)" stroke-opacity="1" stroke-miterlimit="22.925586" d="M 422.328954 157.132322 C 422.340716 157.332277 422.42305 157.496945 422.568115 157.622407 C 422.71318 157.743947 422.881769 157.802758 423.066041 157.790996 C 423.269916 157.779234 423.434584 157.704741 423.560045 157.559676 C 423.689428 157.418532 423.748238 157.249943 423.728634 157.049988 C 423.716872 156.857875 423.638459 156.701048 423.493394 156.583428 C 423.344408 156.461887 423.167978 156.406998 422.964103 156.422681 C 422.779831 156.434443 422.626925 156.505015 422.497543 156.642238 C 422.372081 156.779462 422.313271 156.94413 422.328954 157.132322 Z M 417.929959 157.395008 C 417.945642 157.598883 418.024055 157.75963 418.161279 157.885092 C 418.302423 158.010553 418.474933 158.065443 418.667046 158.053681 C 418.870921 158.041919 419.035589 157.967426 419.164971 157.826282 C 419.290433 157.681217 419.345322 157.512628 419.329639 157.312673 C 419.317877 157.12056 419.239464 156.967654 419.094399 156.846113 C 418.949334 156.728493 418.776824 156.673604 418.569029 156.685366 C 418.372995 156.697128 418.212247 156.771621 418.094627 156.908844 C 417.969166 157.046068 417.914276 157.206815 417.929959 157.395008 Z M 424.363783 144.233309 C 424.065812 143.747145 423.709031 143.30803 423.305202 142.923804 C 422.905293 142.535657 422.462257 142.206321 421.991776 141.931874 C 421.513454 141.661347 421.011608 141.461393 420.482317 141.32809 C 419.953026 141.198708 419.415894 141.147739 418.859158 141.183025 C 418.024055 141.233994 417.283048 141.422186 416.640058 141.755443 C 415.997067 142.080859 415.463856 142.543499 415.044344 143.123758 C 414.620911 143.707938 414.315099 144.41366 414.126906 145.237001 C 413.934793 146.064263 413.879904 146.993462 413.954397 148.02852 L 414.417036 154.470186 C 414.424877 154.599568 414.475846 154.709347 414.562101 154.799522 C 414.656197 154.877936 414.777738 154.921063 414.934565 154.909301 C 415.060026 154.90146 415.165885 154.850491 415.244298 154.756395 C 415.322712 154.658378 415.357998 154.544678 415.350156 154.411375 L 414.887517 147.973631 C 414.754214 146.119152 415.052185 144.699869 415.78143 143.711859 C 416.514596 142.72385 417.58886 142.190638 419.015985 142.108304 C 419.721707 142.061256 420.403904 142.167114 421.054735 142.414116 C 421.701646 142.661119 422.277985 143.021821 422.779831 143.492301 C 423.289519 143.962782 423.697269 144.527359 424.022685 145.189953 C 424.340259 145.848626 424.532372 146.566109 424.583341 147.350244 L 425.053822 153.815433 C 425.065584 153.948736 425.112632 154.062436 425.210649 154.14869 C 425.304745 154.238866 425.422365 154.281993 425.559588 154.274152 C 425.68505 154.266311 425.790908 154.211421 425.877163 154.109484 C 425.963418 154.007546 425.998704 153.889926 425.990863 153.760544 L 425.089108 141.265359 C 425.081266 141.135977 425.026377 141.026198 424.936201 140.939943 C 424.834264 140.853689 424.720564 140.814482 424.583341 140.826244 C 424.450038 140.834085 424.340259 140.885054 424.261846 140.97915 C 424.179512 141.073246 424.144226 141.190866 424.152067 141.324169 Z M 424.363783 144.233309 " transform="matrix(0.996321, 0, 0, -0.996321, 1.591847, 255.10897)"/>
<path fill-rule="nonzero" fill="rgb(10.195923%, 10.195923%, 9.411621%)" fill-opacity="1" stroke-width="0.216" stroke-linecap="butt" stroke-linejoin="miter" stroke="rgb(10.195923%, 10.195923%, 9.411621%)" stroke-opacity="1" stroke-miterlimit="22.925586" d="M 430.358492 151.772763 C 430.593733 152.078575 430.864259 152.356943 431.166151 152.600025 C 431.464122 152.847027 431.789538 153.046981 432.130636 153.21165 C 432.475656 153.376318 432.836357 153.497859 433.216663 153.580193 C 433.596968 153.658606 433.985115 153.686051 434.385023 153.654686 C 434.83198 153.6194 435.251492 153.525303 435.643559 153.368476 C 436.035627 153.21165 436.396328 153.011695 436.725665 152.764693 C 437.058922 152.521611 437.345131 152.235402 437.588213 151.909986 C 437.835215 151.58457 438.031249 151.227789 438.184155 150.839642 C 438.419396 151.196424 438.705605 151.513998 439.038862 151.792366 C 439.37604 152.074654 439.744583 152.309895 440.140571 152.498087 C 440.5444 152.686279 440.959992 152.827424 441.391266 152.917599 C 441.82646 153.003854 442.261655 153.035219 442.70077 152.999933 C 443.312395 152.952885 443.876972 152.796058 444.394501 152.537294 C 444.908109 152.274609 445.343304 151.937431 445.711847 151.52184 C 446.07647 151.106248 446.354838 150.631847 446.550871 150.098635 C 446.746905 149.565424 446.829239 149.008688 446.793953 148.428429 C 446.805715 148.408825 446.805715 148.37746 446.801794 148.326491 L 446.009818 139.689249 C 445.998056 139.555946 445.947088 139.446167 445.849071 139.363833 C 445.751054 139.281499 445.641275 139.242292 445.511893 139.254054 C 445.37859 139.261895 445.268811 139.316785 445.186477 139.414802 C 445.100222 139.512818 445.064936 139.626518 445.076698 139.759821 L 445.864753 148.400984 C 445.911802 148.887147 445.849071 149.345866 445.684403 149.773219 C 445.515814 150.200573 445.280573 150.584799 444.97084 150.910215 C 444.665028 151.243472 444.300405 151.510078 443.876972 151.713953 C 443.45354 151.921748 443.006583 152.043289 442.528261 152.078575 C 442.034256 152.121703 441.548093 152.058972 441.081533 151.906066 C 440.607131 151.753159 440.19154 151.529681 439.822997 151.239551 C 439.450533 150.945501 439.14472 150.600481 438.893797 150.200573 C 438.646795 149.796743 438.50173 149.361549 438.458602 148.898909 L 437.678388 140.344001 C 437.666626 140.206778 437.615658 140.100919 437.517641 140.018585 C 437.419624 139.936251 437.305925 139.897044 437.168701 139.908806 C 437.039319 139.916648 436.933461 139.971537 436.847206 140.069554 C 436.75703 140.167571 436.717824 140.28127 436.729586 140.418494 L 437.517641 149.012609 L 437.517641 149.071419 L 437.521562 149.083181 C 437.556848 149.561503 437.494117 150.016301 437.329449 150.443655 C 437.168701 150.871008 436.933461 151.247392 436.631569 151.572808 C 436.329677 151.902145 435.965054 152.16483 435.553384 152.368705 C 435.133872 152.57258 434.690836 152.698041 434.228196 152.733327 C 433.738112 152.768614 433.263711 152.717645 432.808913 152.57258 C 432.350194 152.423594 431.934603 152.215799 431.562139 151.937431 C 431.185754 151.659063 430.876021 151.329727 430.632939 150.94158 C 430.385937 150.553433 430.22911 150.133921 430.1703 149.679123 L 429.378324 141.010515 C 429.366562 140.873292 429.307752 140.763513 429.205814 140.677258 C 429.107797 140.587083 428.994098 140.547876 428.868636 140.559638 C 428.731413 140.5714 428.621634 140.62629 428.535379 140.728227 C 428.453045 140.834085 428.417759 140.951705 428.429521 141.085008 L 429.566516 153.544907 C 429.578278 153.67821 429.633168 153.787989 429.731184 153.874243 C 429.825281 153.964419 429.93898 154.003626 430.080124 153.991863 C 430.217348 153.980101 430.323206 153.925212 430.409461 153.823275 C 430.491795 153.721337 430.531002 153.599796 430.51924 153.466493 Z M 430.358492 151.772763 " transform="matrix(0.996321, 0, 0, -0.996321, 1.591847, 255.10897)"/>
<path fill-rule="nonzero" fill="rgb(10.195923%, 10.195923%, 9.411621%)" fill-opacity="1" stroke-width="0.216" stroke-linecap="butt" stroke-linejoin="miter" stroke="rgb(10.195923%, 10.195923%, 9.411621%)" stroke-opacity="1" stroke-miterlimit="22.925586" d="M 450.177494 139.246213 C 450.161811 139.11291 450.106922 139.007052 450.008905 138.928638 C 449.914809 138.854145 449.797188 138.818859 449.659965 138.834542 C 449.526662 138.850225 449.416883 138.897273 449.33847 138.991369 C 449.260056 139.085465 449.228691 139.199165 449.240453 139.332467 L 451.102772 156.642238 C 451.118455 156.775541 451.169424 156.881399 451.267441 156.959813 C 451.365458 157.038226 451.483078 157.069592 451.616381 157.05783 C 451.753604 157.046068 451.859462 156.991178 451.937876 156.897082 C 452.02021 156.806907 452.043734 156.689286 452.035893 156.559904 Z M 450.177494 139.246213 " transform="matrix(0.996321, 0, 0, -0.996321, 1.591847, 255.10897)"/>
<path fill-rule="nonzero" fill="rgb(10.195923%, 10.195923%, 9.411621%)" fill-opacity="1" stroke-width="0.216" stroke-linecap="butt" stroke-linejoin="miter" stroke="rgb(10.195923%, 10.195923%, 9.411621%)" stroke-opacity="1" stroke-miterlimit="22.925586" d="M 466.432604 144.158816 C 466.487493 144.927268 466.389476 145.668275 466.142474 146.377917 C 465.895471 147.087558 465.534769 147.718787 465.064289 148.271602 C 464.585967 148.828337 464.017469 149.287056 463.343113 149.651679 C 462.672678 150.020222 461.935592 150.2437 461.139695 150.329955 C 460.335957 150.41621 459.563585 150.353479 458.826498 150.137842 C 458.089412 149.922205 457.422897 149.596789 456.826955 149.149832 C 456.231013 148.706796 455.737008 148.165744 455.333179 147.530595 C 454.929349 146.899366 454.666664 146.201486 454.533361 145.436955 Z M 454.46671 144.637138 C 454.41182 143.872607 454.505917 143.143362 454.748998 142.445482 C 454.99208 141.747602 455.352782 141.124215 455.823263 140.579241 C 456.289823 140.038189 456.8544 139.583391 457.516993 139.222689 C 458.183508 138.865907 458.908832 138.642429 459.692967 138.560095 C 460.139924 138.513047 460.58688 138.513047 461.037758 138.564016 C 461.484714 138.618905 461.915988 138.713001 462.33158 138.850225 C 462.747171 138.991369 463.135318 139.17172 463.49994 139.387357 C 463.868483 139.606915 464.193899 139.865679 464.484029 140.159729 C 464.660459 140.285191 464.821207 140.316556 464.970193 140.253826 C 465.044685 140.21854 465.099575 140.155809 465.138782 140.077395 C 465.217195 139.991141 465.256402 139.885282 465.256402 139.7559 C 465.252481 139.626518 465.18583 139.508898 465.044685 139.410881 C 464.358568 138.791415 463.55483 138.317013 462.629551 137.983756 C 461.704272 137.654419 460.692738 137.544641 459.587109 137.662261 C 458.626544 137.768119 457.748313 138.042566 456.952416 138.485602 C 456.15652 138.932559 455.482164 139.493215 454.929349 140.171491 C 454.380455 140.849768 453.972705 141.62214 453.71002 142.484689 C 453.443414 143.347237 453.372842 144.248991 453.486542 145.186032 C 453.600241 146.126994 453.890371 146.985621 454.35301 147.765835 C 454.81565 148.549969 455.39983 149.208643 456.09771 149.757537 C 456.79559 150.29859 457.587565 150.70634 458.469717 150.969025 C 459.351868 151.23563 460.273226 151.317965 461.233791 151.212106 C 462.194356 151.110169 463.072587 150.835722 463.868483 150.388765 C 464.66438 149.945729 465.338736 149.381152 465.88763 148.702876 C 466.440445 148.024599 466.848195 147.256147 467.118721 146.39752 C 467.389248 145.534972 467.463741 144.644979 467.350041 143.711859 C 467.338279 143.590318 467.279469 143.488381 467.189293 143.409967 C 467.095197 143.323713 466.981498 143.292347 466.844274 143.30803 Z M 454.46671 144.637138 " transform="matrix(0.996321, 0, 0, -0.996321, 1.591847, 255.10897)"/>
<path fill-rule="nonzero" fill="rgb(10.195923%, 10.195923%, 9.411621%)" fill-opacity="1" stroke-width="0.216" stroke-linecap="butt" stroke-linejoin="miter" stroke="rgb(10.195923%, 10.195923%, 9.411621%)" stroke-opacity="1" stroke-miterlimit="22.925586" d="M 471.36481 146.444568 C 471.741195 146.934652 472.18031 147.369847 472.678236 147.750152 C 473.17224 148.130457 473.709372 148.440191 474.285711 148.687193 C 474.865971 148.930275 475.469755 149.102784 476.100983 149.196881 C 476.736132 149.294897 477.386964 149.302739 478.057399 149.212563 C 478.077002 149.212563 478.088764 149.208643 478.092685 149.200801 C 478.096605 149.196881 478.108367 149.196881 478.127971 149.19296 C 478.147574 149.200801 478.175019 149.200801 478.214226 149.19296 C 478.378894 149.173356 478.500435 149.114546 478.567086 149.02045 C 478.633738 148.922433 478.665103 148.808734 478.641579 148.679352 C 478.625896 148.546049 478.563166 148.444111 478.461228 148.369619 C 478.35537 148.295126 478.229908 148.267681 478.084843 148.287284 L 477.982906 148.299046 L 477.928017 148.306888 C 477.085072 148.416667 476.269572 148.353936 475.477596 148.126537 C 474.68562 147.903058 473.968137 147.550198 473.325147 147.067955 C 472.678236 146.589633 472.141103 145.997611 471.705909 145.295811 C 471.270714 144.597931 470.992346 143.821638 470.870805 142.970852 L 470.031781 137.125129 C 470.016099 136.995746 469.953368 136.889888 469.84751 136.803633 C 469.741652 136.721299 469.627952 136.686013 469.50249 136.705617 C 469.365267 136.721299 469.259409 136.78403 469.180995 136.885968 C 469.102582 136.995746 469.071216 137.117287 469.09082 137.246669 L 470.862964 149.639917 C 470.882567 149.77714 470.941377 149.882998 471.047236 149.965332 C 471.157014 150.047667 471.270714 150.082953 471.396175 150.06727 C 471.54124 150.043746 471.65494 149.981015 471.725512 149.879078 C 471.796084 149.773219 471.823529 149.655599 471.807846 149.522296 Z M 471.36481 146.444568 " transform="matrix(0.996321, 0, 0, -0.996321, 1.591847, 255.10897)"/>
<path fill-rule="nonzero" fill="rgb(10.195923%, 10.195923%, 9.411621%)" fill-opacity="1" stroke-width="0.216" stroke-linecap="butt" stroke-linejoin="miter" stroke="rgb(10.195923%, 10.195923%, 9.411621%)" stroke-opacity="1" stroke-miterlimit="22.925586" d="M 481.374288 151.855097 C 481.409574 152.055051 481.49975 152.211878 481.644814 152.317736 C 481.797721 152.427515 481.96631 152.466722 482.162343 152.439277 C 482.366218 152.415753 482.523045 152.325578 482.640665 152.176592 C 482.754365 152.031527 482.797492 151.859017 482.766127 151.662984 C 482.738682 151.482633 482.644586 151.333647 482.487759 151.223868 C 482.334853 151.110169 482.154502 151.067042 481.954548 151.098407 C 481.758514 151.121931 481.605608 151.212106 481.49975 151.361092 C 481.38605 151.513998 481.346843 151.674746 481.374288 151.855097 Z M 480.041259 135.796021 C 480.025577 135.662718 479.958925 135.556859 479.853067 135.474525 C 479.747209 135.396112 479.633509 135.360826 479.504127 135.380429 C 479.370824 135.396112 479.261045 135.458843 479.190473 135.572542 C 479.11206 135.67448 479.084615 135.796021 479.104218 135.929323 L 481.041031 148.302967 C 481.060634 148.432349 481.123365 148.542128 481.225302 148.624462 C 481.32724 148.706796 481.44486 148.738162 481.578163 148.718558 C 481.715387 148.698955 481.821245 148.636224 481.895738 148.530366 C 481.974151 148.416667 482.001596 148.302967 481.981992 148.169664 Z M 480.041259 135.796021 " transform="matrix(0.996321, 0, 0, -0.996321, 1.591847, 255.10897)"/>
</svg>
